<?xml version="1.0" encoding="UTF-8"?>
<!DOCTYPE svg PUBLIC "-//W3C//DTD SVG 1.1//EN" "http://www.w3.org/Graphics/SVG/1.1/DTD/svg11.dtd">
<svg version="1.1" xmlns="http://www.w3.org/2000/svg" xmlns:xlink="http://www.w3.org/1999/xlink" x="0" y="0" width="100%" height="100%" viewBox="0, 0, 28.346, 28.346">
  <g id="Kleinwagen">
    <path d="M19.581,18.158 L9.72,17.943" fill-opacity="0" stroke="#C7C2C2" stroke-width="1" stroke-linecap="round" stroke-linejoin="round"/>
    <path d="M4.897,17.85 L5.756,17.901 C4.795,18.174 3.707,17.055 3.707,16.425 L3.707,13.437" fill-opacity="0" stroke="#C7C2C2" stroke-width="1" stroke-linecap="round" stroke-linejoin="round"/>
    <path d="M14.738,9.716 C17.824,9.68 18.741,11.306 20.505,13.005" fill-opacity="0" stroke="#C7C2C2" stroke-width="1" stroke-linecap="round" stroke-linejoin="round"/>
    <path d="M15.069,9.841 L15.261,12.879" fill-opacity="0" stroke="#C7C2C2" stroke-width="1" stroke-linecap="round" stroke-linejoin="round"/>
    <path d="M3.822,14.687 L4.91,14.66" fill-opacity="0" stroke="#C7C2C2" stroke-width="1" stroke-linecap="round" stroke-linejoin="round"/>
    <path d="M24.962,15.507 L26.199,15.498" fill-opacity="0" stroke="#C7C2C2" stroke-width="1" stroke-linecap="round" stroke-linejoin="round"/>
    <path d="M7.738,19.882 C6.644,19.882 5.756,18.995 5.756,17.901 C5.756,16.806 6.644,15.919 7.738,15.919 C8.832,15.919 9.72,16.806 9.72,17.901 C9.72,18.995 8.832,19.882 7.738,19.882 z" fill-opacity="0" stroke="#C7C2C2" stroke-width="1" stroke-linecap="round" stroke-linejoin="round"/>
    <path d="M21.562,19.882 C20.468,19.882 19.581,18.995 19.581,17.901 C19.581,16.806 20.468,15.919 21.562,15.919 C22.657,15.919 23.544,16.806 23.544,17.901 C23.544,18.995 22.657,19.882 21.562,19.882 z" fill-opacity="0" stroke="#C7C2C2" stroke-width="1" stroke-linecap="round" stroke-linejoin="round"/>
    <path d="M14.738,9.716 C6.108,9.353 6.691,12.361 3.707,13.437" fill-opacity="0" stroke="#C7C2C2" stroke-width="1" stroke-linecap="round" stroke-linejoin="round"/>
    <path d="M4.91,13.005 L20.836,13.089 C21.479,13.089 26.299,14.3 26.299,14.93 L26.351,17.211 C26.351,17.84 25.854,18.158 25.21,18.158 L23.544,18.158" fill-opacity="0" stroke="#C7C2C2" stroke-width="1" stroke-linecap="round" stroke-linejoin="round"/>
    <path d="M10.832,9.899 L10.454,13.005" fill-opacity="0" stroke="#C7C2C2" stroke-width="1" stroke-linecap="round" stroke-linejoin="round"/>
  </g>
</svg>
