<?xml version="1.0" encoding="UTF-8"?>
<!DOCTYPE svg PUBLIC "-//W3C//DTD SVG 1.1//EN" "http://www.w3.org/Graphics/SVG/1.1/DTD/svg11.dtd">
<svg version="1.1" xmlns="http://www.w3.org/2000/svg" xmlns:xlink="http://www.w3.org/1999/xlink" x="0" y="0" width="28.346" height="28.346" viewBox="0, 0, 28.346, 28.346">
  <g id="Transporter">
    <path d="M5.264,13.539 L15.775,13.67" fill-opacity="0" stroke="#C7C2C2" stroke-width="1" stroke-linecap="round" stroke-linejoin="round"/>
    <path d="M17.394,13.67 L22.982,13.76 C23.625,13.76 25.881,14.494 26.471,15.261 L26.431,18.938 C26.431,19.567 25.024,19.41 24.381,19.41 L25.649,19.404" fill-opacity="0" stroke="#C7C2C2" stroke-width="1" stroke-linecap="round" stroke-linejoin="round"/>
    <path d="M19.968,19.268 L9.627,19.11" fill-opacity="0" stroke="#C7C2C2" stroke-width="1" stroke-linecap="round" stroke-linejoin="round"/>
    <path d="M5.466,19.11 L4.041,19.048 C3.398,19.048 2.876,18.505 2.876,17.876 L3.053,9.893" fill-opacity="0" stroke="#C7C2C2" stroke-width="1" stroke-linecap="round" stroke-linejoin="round"/>
    <path d="M17.109,8.617 L17.394,13.539" fill-opacity="0" stroke="#C7C2C2" stroke-width="1" stroke-linecap="round" stroke-linejoin="round"/>
    <path d="M3.053,14.281 L4.041,14.275" fill-opacity="0" stroke="#C7C2C2" stroke-width="1" stroke-linecap="round" stroke-linejoin="round"/>
    <path d="M25.233,15.753 L26.471,15.753" fill-opacity="0" stroke="#C7C2C2" stroke-width="1" stroke-linecap="round" stroke-linejoin="round"/>
    <path d="M7.447,20.92 C6.353,20.92 5.466,20.033 5.466,18.938 C5.466,17.844 6.353,16.957 7.447,16.957 C8.542,16.957 9.429,17.844 9.429,18.938 C9.429,20.033 8.542,20.92 7.447,20.92 z" fill-opacity="0" stroke="#C7C2C2" stroke-width="1" stroke-linecap="round" stroke-linejoin="round"/>
    <path d="M22.124,20.92 C21.029,20.92 20.142,20.033 20.142,18.938 C20.142,17.844 21.029,16.957 22.124,16.957 C23.218,16.957 24.105,17.844 24.105,18.938 C24.105,20.033 23.218,20.92 22.124,20.92 z" fill-opacity="0" stroke="#C7C2C2" stroke-width="1" stroke-linecap="round" stroke-linejoin="round"/>
    <path d="M5.466,8.426 C3.67,8.426 3.23,8.426 3.053,9.893" fill-opacity="0" stroke="#C7C2C2" stroke-width="1" stroke-linecap="round" stroke-linejoin="round"/>
    <path d="M19.312,8.426 C20.572,9.331 22.479,12.251 22.982,13.76" fill-opacity="0" stroke="#C7C2C2" stroke-width="1" stroke-linecap="round" stroke-linejoin="round"/>
    <path d="M19.312,8.426 L4.967,8.426" fill-opacity="0" stroke="#C7C2C2" stroke-width="1" stroke-linecap="round" stroke-linejoin="round"/>
  </g>
</svg>
