<?xml version="1.0" encoding="UTF-8"?>
<!DOCTYPE svg PUBLIC "-//W3C//DTD SVG 1.1//EN" "http://www.w3.org/Graphics/SVG/1.1/DTD/svg11.dtd">
<svg version="1.1" xmlns="http://www.w3.org/2000/svg" xmlns:xlink="http://www.w3.org/1999/xlink" x="0" y="0" width="28.346" height="28.346" viewBox="0, 0, 28.346, 28.346">
  <g id="Bus">
    <g>
      <path d="M6.381,12.95 L23.064,13.312 C23.707,13.312 24.889,13.696 25.688,14.453 L25.731,18.491 C25.731,19.12 25.661,18.956 25.017,18.956 L25.165,18.947" fill-opacity="0" stroke="#C7C2C2" stroke-width="0.5" stroke-linecap="round" stroke-linejoin="round"/>
      <path d="M19.393,18.774 L10.34,18.491" fill-opacity="0" stroke="#C7C2C2" stroke-width="0.5" stroke-linecap="round" stroke-linejoin="round"/>
      <path d="M4.657,18.631 L4.657,18.631 C4.014,18.631 3.615,18.031 3.615,17.402 L3.655,13.724" fill-opacity="0" stroke="#C7C2C2" stroke-width="0.5" stroke-linecap="round" stroke-linejoin="round"/>
      <path d="M18.333,9.099 L18.616,13.085" fill-opacity="0" stroke="#C7C2C2" stroke-width="0.7" stroke-linecap="round" stroke-linejoin="round"/>
      <path d="M8.062,8.884 C6.135,9.951 6.556,11.966 6.381,12.95" fill-opacity="0" stroke="#C7C2C2" stroke-width="0.5" stroke-linecap="round" stroke-linejoin="round"/>
      <path d="M3.721,13.73 L4.709,13.724" fill-opacity="0" stroke="#C7C2C2" stroke-width="0.5" stroke-linecap="round" stroke-linejoin="round"/>
      <path d="M24.494,15.247 L25.731,15.247" fill-opacity="0" stroke="#C7C2C2" stroke-width="0.5" stroke-linecap="round" stroke-linejoin="round"/>
      <path d="M4.657,18.631 L4.657,18.491 C4.657,16.939 5.977,15.68 7.529,15.68 C9.081,15.68 10.34,16.939 10.34,18.491" fill-opacity="0" stroke="#C7C2C2" stroke-width="0.5" stroke-linecap="round" stroke-linejoin="round"/>
      <path d="M19.393,18.774 L19.393,18.501 C19.393,16.948 20.652,15.69 22.204,15.69 C23.757,15.69 25.015,16.948 25.015,18.501 C25.025,18.657 24.996,18.805 24.965,18.956" fill-opacity="0" stroke="#C7C2C2" stroke-width="0.5" stroke-linecap="round" stroke-linejoin="round"/>
      <path d="M7.529,20.473 C6.435,20.473 5.547,19.586 5.547,18.491 C5.547,17.397 6.435,16.51 7.529,16.51 C8.623,16.51 9.511,17.397 9.511,18.491 C9.511,19.586 8.623,20.473 7.529,20.473 z" fill-opacity="0" stroke="#C7C2C2" stroke-width="0.5" stroke-linecap="round" stroke-linejoin="round"/>
      <path d="M22.205,20.473 C21.111,20.473 20.224,19.586 20.224,18.491 C20.224,17.397 21.111,16.51 22.205,16.51 C23.3,16.51 24.187,17.397 24.187,18.491 C24.187,19.586 23.3,20.473 22.205,20.473 z" fill-opacity="0" stroke="#C7C2C2" stroke-width="0.5" stroke-linecap="round" stroke-linejoin="round"/>
      <path d="M7.106,8.884 C3.661,8.668 3.969,11.995 3.721,13.512" fill-opacity="0" stroke="#C7C2C2" stroke-width="0.5" stroke-linecap="round" stroke-linejoin="round"/>
      <path d="M11.638,8.991 L11.347,12.842" fill-opacity="0" stroke="#C7C2C2" stroke-width="0.7" stroke-linecap="round" stroke-linejoin="round"/>
      <path d="M20.973,8.884 C23.016,9.305 23.256,11.804 23.759,13.312" fill-opacity="0" stroke="#C7C2C2" stroke-width="0.5" stroke-linecap="round" stroke-linejoin="round" id="Shape"/>
      <path d="M20.973,8.884 L6.628,8.884" fill-opacity="0" stroke="#C7C2C2" stroke-width="0.5" stroke-linecap="round" stroke-linejoin="round" id="Shape"/>
    </g>
  </g>
</svg>
