<?xml version="1.0" encoding="UTF-8"?>
<!DOCTYPE svg PUBLIC "-//W3C//DTD SVG 1.1//EN" "http://www.w3.org/Graphics/SVG/1.1/DTD/svg11.dtd">
<svg version="1.1" xmlns="http://www.w3.org/2000/svg" xmlns:xlink="http://www.w3.org/1999/xlink" x="0" y="0" width="28.346" height="28.346" viewBox="0, 0, 28.346, 28.346">
  <g id="Smoken">
    <g>
      <path d="M27.168,20.766 L27.168,24.341" fill-opacity="0" stroke="#808080" stroke-width="1" stroke-linecap="round" stroke-linejoin="round"/>
      <path d="M27.151,14.648 L27.168,17.328" fill-opacity="0" stroke="#808080" stroke-width="1" stroke-linecap="round" stroke-linejoin="round"/>
      <g>
        <path d="M2.178,20.55 L8.251,20.55 L8.251,24.34 L2.178,24.34 z" fill="#808080"/>
        <path d="M2.178,20.55 L8.251,20.55 L8.251,24.34 L2.178,24.34 z" fill-opacity="0" stroke="#808080" stroke-width="1" stroke-linecap="round" stroke-linejoin="round"/>
      </g>
      <path d="M2.178,20.55 L25.546,20.55 L25.546,24.341 L2.178,24.341 z" fill-opacity="0" stroke="#808080" stroke-width="1" stroke-linecap="round" stroke-linejoin="round"/>
      <path d="M22.304,14.595 L17.923,14.595 C16.267,14.595 14.925,13.357 14.925,11.831 L14.925,11.831" fill-opacity="0" stroke="#808080" stroke-width="1" stroke-linecap="round" stroke-linejoin="round"/>
      <path d="M19.399,14.595 L22.554,14.595 C24.209,14.595 25.551,15.833 25.551,17.36 L25.551,17.36 L25.55,17.381" fill-opacity="0" stroke="#808080" stroke-width="1" stroke-linecap="round" stroke-linejoin="round"/>
      <path d="M25.551,17.208 L25.551,18.823" fill-opacity="0" stroke="#808080" stroke-width="1" stroke-linecap="round" stroke-linejoin="round"/>
      <path d="M19.045,11.438 L22.316,11.438 C24.504,11.307 26.864,12.935 27.168,14.7" fill-opacity="0" stroke="#808080" stroke-width="1" stroke-linecap="round" stroke-linejoin="round"/>
      <path d="M18.966,11.438 C21.445,8.113 18.563,3.845 14.523,5.298" fill-opacity="0" stroke="#808080" stroke-width="1" stroke-linecap="round" stroke-linejoin="round"/>
    </g>
  </g>
</svg>
