<?xml version="1.0" encoding="UTF-8"?>
<!DOCTYPE svg PUBLIC "-//W3C//DTD SVG 1.1//EN" "http://www.w3.org/Graphics/SVG/1.1/DTD/svg11.dtd">
<svg version="1.1" xmlns="http://www.w3.org/2000/svg" xmlns:xlink="http://www.w3.org/1999/xlink" x="0" y="0" width="14.173" height="19.843" viewBox="0, 0, 14.173, 19.843">
  <g id="&quot;_-Layer_4">
    <g>
      <path d="M12.687,13.188 L12.944,13.202 C13.614,13.38 13.687,16.612 12.87,17.787 L12.401,18.391 L10.517,18.391 C9.666,18.407 8.699,18.459 7.859,18.391 L6.58,18.391 L6.58,18.391 L6.314,18.391 C5.474,18.459 4.507,18.407 3.656,18.391 L1.772,18.391 L1.303,17.787 C0.486,16.612 0.56,13.38 1.229,13.202 L1.486,13.188 C2.327,13.441 2.68,14.262 2.961,15.024 C4.246,14.478 5.716,14.522 7.087,14.478 C8.457,14.522 9.928,14.478 11.213,15.024 C11.493,14.262 11.846,13.441 12.687,13.188 z" fill="#C7C2C2"/>
      <path d="M10.458,5.226 C10.969,5.226 11.382,5.644 11.382,6.16 L11.662,12.989 C10.916,13.822 11.16,13.386 10.834,14.236 C9.669,13.786 8.325,13.807 7.087,13.749 C5.834,13.774 4.542,13.832 3.35,14.264 C3.013,13.386 3.264,13.829 2.511,12.989 L2.791,6.16 C2.791,5.644 3.205,5.226 3.715,5.226 L10.458,5.226 z" fill="#C7C2C2"/>
      <path d="M4.141,4.451 L4.079,4.1 L4.079,2.562 C4.079,1.93 4.528,1.417 5.081,1.417 L9.093,1.417 C9.646,1.417 10.094,1.93 10.094,2.562 L10.094,4.1 L10.032,4.451 L4.141,4.451 z" fill="#C7C2C2"/>
      <path d="M10.594,5.726 C10.616,7.243 4.149,12.292 4.64,14.546" fill-opacity="0" stroke="#8080FF" stroke-width="1"/>
    </g>
  </g>
</svg>
