<?xml version="1.0" encoding="UTF-8"?>
<!DOCTYPE svg PUBLIC "-//W3C//DTD SVG 1.1//EN" "http://www.w3.org/Graphics/SVG/1.1/DTD/svg11.dtd">
<svg version="1.1" xmlns="http://www.w3.org/2000/svg" xmlns:xlink="http://www.w3.org/1999/xlink" x="0" y="0" width="28.346" height="28.346" viewBox="0, 0, 28.346, 28.346">
  <g id="Layer_55">
    <g>
      <g>
        <g>
          <path d="M6.96,5.741 C6.756,4.812 7.401,3.716 7.706,3.072" fill="#C7C2C2"/>
          <path d="M6.96,5.741 C6.756,4.812 7.401,3.716 7.706,3.072" fill-opacity="0" stroke="#C7C2C2" stroke-width="0.6" stroke-linecap="round" stroke-linejoin="round"/>
        </g>
        <g>
          <path d="M6.96,5.741 C6.411,6.207 5.867,6.989 5.437,7.541" fill="#C7C2C2"/>
          <path d="M6.96,5.741 C6.411,6.207 5.867,6.989 5.437,7.541" fill-opacity="0" stroke="#C7C2C2" stroke-width="0.6" stroke-linecap="round" stroke-linejoin="round"/>
        </g>
        <g>
          <path d="M5.437,7.541 C4.186,7.811 3.503,8.056 2.728,8.911" fill="#C7C2C2"/>
          <path d="M5.437,7.541 C4.186,7.811 3.503,8.056 2.728,8.911" fill-opacity="0" stroke="#C7C2C2" stroke-width="0.6" stroke-linecap="round" stroke-linejoin="round"/>
        </g>
        <g>
          <path d="M2.713,8.911 C2.778,11.887 4.888,13.274 7.706,12.567" fill="#C7C2C2"/>
          <path d="M2.713,8.911 C2.778,11.887 4.888,13.274 7.706,12.567" fill-opacity="0" stroke="#C7C2C2" stroke-width="0.6" stroke-linecap="round" stroke-linejoin="round"/>
        </g>
        <g>
          <path d="M8.675,13.537 C8.816,17.186 8.55,20.838 8.55,24.455" fill="#C7C2C2"/>
          <path d="M8.675,13.537 C8.816,17.186 8.55,20.838 8.55,24.455" fill-opacity="0" stroke="#C7C2C2" stroke-width="0.6" stroke-linecap="round" stroke-linejoin="round"/>
        </g>
        <g>
          <path d="M8.55,24.455 C9.507,24.688 11.034,20.325 12.896,18.382" fill="#C7C2C2"/>
          <path d="M8.55,24.455 C9.507,24.688 11.034,20.325 12.896,18.382" fill-opacity="0" stroke="#C7C2C2" stroke-width="0.6" stroke-linecap="round" stroke-linejoin="round"/>
        </g>
        <g>
          <path d="M13.074,18.311 C15.264,17.964 18.266,18.664 20.377,19.337" fill="#C7C2C2"/>
          <path d="M13.074,18.311 C15.264,17.964 18.266,18.664 20.377,19.337" fill-opacity="0" stroke="#C7C2C2" stroke-width="0.6" stroke-linecap="round" stroke-linejoin="round"/>
        </g>
        <g>
          <path d="M20.377,19.337 C22.22,20.881 22.653,22.704 23.192,24.455" fill="#C7C2C2"/>
          <path d="M20.377,19.337 C22.22,20.881 22.653,22.704 23.192,24.455" fill-opacity="0" stroke="#C7C2C2" stroke-width="0.6" stroke-linecap="round" stroke-linejoin="round"/>
        </g>
        <g>
          <path d="M23.013,14.018 C23.311,17.183 25.459,22.405 23.192,24.455" fill="#C7C2C2"/>
          <path d="M23.013,14.018 C23.311,17.183 25.459,22.405 23.192,24.455" fill-opacity="0" stroke="#C7C2C2" stroke-width="0.6" stroke-linecap="round" stroke-linejoin="round"/>
        </g>
        <g>
          <path d="M23.013,14.065 C25.38,12.312 28.228,5.447 23.873,10.608" fill="#C7C2C2"/>
          <path d="M23.013,14.065 C25.38,12.312 28.228,5.447 23.873,10.608" fill-opacity="0" stroke="#C7C2C2" stroke-width="0.6" stroke-linecap="round" stroke-linejoin="round"/>
        </g>
        <g>
          <path d="M23.873,10.608 C23.192,11.508 22.117,12.748 20.539,12.184" fill="#C7C2C2"/>
          <path d="M23.873,10.608 C23.192,11.508 22.117,12.748 20.539,12.184" fill-opacity="0" stroke="#C7C2C2" stroke-width="0.6" stroke-linecap="round" stroke-linejoin="round"/>
        </g>
        <g>
          <path d="M20.377,12.184 C18.034,11.803 15.772,11.19 13.662,10.136" fill="#C7C2C2"/>
          <path d="M20.377,12.184 C18.034,11.803 15.772,11.19 13.662,10.136" fill-opacity="0" stroke="#C7C2C2" stroke-width="0.6" stroke-linecap="round" stroke-linejoin="round"/>
        </g>
        <g>
          <path d="M7.706,3.072 C9.947,4.266 10.992,7.227 12.498,9.27" fill="#C7C2C2"/>
          <path d="M7.706,3.072 C9.947,4.266 10.992,7.227 12.498,9.27" fill-opacity="0" stroke="#C7C2C2" stroke-width="0.6" stroke-linecap="round" stroke-linejoin="round"/>
        </g>
        <g>
          <path d="M12.498,9.27 L7.706,12.567" fill="#C7C2C2"/>
          <path d="M12.498,9.27 L7.706,12.567" fill-opacity="0" stroke="#C7C2C2" stroke-width="0.6" stroke-linecap="round" stroke-linejoin="round"/>
        </g>
        <g>
          <path d="M8.675,13.537 L13.662,10.136" fill="#C7C2C2"/>
          <path d="M8.675,13.537 L13.662,10.136" fill-opacity="0" stroke="#C7C2C2" stroke-width="0.6" stroke-linecap="round" stroke-linejoin="round"/>
        </g>
      </g>
      <g>
        <g>
          <path d="M25.445,8.911 L26.139,8.911 L24.398,12.748 L23.208,13.952 L23.574,17.27 L24.22,22.329 L23.192,24.338 L22.029,21.557 L20.217,12.309 L21.926,12.326 L23.192,11.438 L25.445,8.911 z" fill="#C7C2C2"/>
          <path d="M25.445,8.911 L26.139,8.911 L24.398,12.748 L23.208,13.952 L23.574,17.27 L24.22,22.329 L23.192,24.338 L22.029,21.557 L20.217,12.309 L21.926,12.326 L23.192,11.438 L25.445,8.911 z" fill-opacity="0" stroke="#C7C2C2" stroke-width="0.1" stroke-linecap="round" stroke-linejoin="round"/>
        </g>
        <g>
          <path d="M7.806,3.012 L7.506,4.069 L7.806,3.253 L9.144,4.237 L10.343,5.894 L11.036,6.999 L12.497,9.27 L7.806,12.566 L5.07,12.665 L5.141,12.405 L3.95,12.005 L2.727,9.757 L3.133,8.567 L5.437,7.541 L6.96,5.501 L7.806,3.012 z" fill="#C7C2C2"/>
          <path d="M7.806,3.012 L7.506,4.069 L7.806,3.253 L9.144,4.237 L10.343,5.894 L11.036,6.999 L12.497,9.27 L7.806,12.566 L5.07,12.665 L5.141,12.405 L3.95,12.005 L2.727,9.757 L3.133,8.567 L5.437,7.541 L6.96,5.501 L7.806,3.012 z" fill-opacity="0" stroke="#C7C2C2" stroke-width="0.1" stroke-linecap="round" stroke-linejoin="round"/>
        </g>
        <g>
          <path d="M9.206,4.322 L9.541,4.636 L12.497,9.27" fill="#C7C2C2"/>
          <path d="M9.206,4.322 L9.541,4.636 L12.497,9.27" fill-opacity="0" stroke="#C7C2C2" stroke-width="0.1" stroke-linecap="round" stroke-linejoin="round"/>
        </g>
        <g>
          <path d="M7.806,3.012 L9.007,4.136" fill="#C7C2C2"/>
          <path d="M7.806,3.012 L9.007,4.136" fill-opacity="0" stroke="#C7C2C2" stroke-width="0.1" stroke-linecap="round" stroke-linejoin="round"/>
        </g>
        <g>
          <path d="M13.662,10.234 L16.138,11.298 L20.217,12.309 L21.926,21.411 L20.725,19.514 L18.457,18.719 L14.985,18.136 L12.785,18.481 L10.984,21.294 L10.456,22.252 L8.716,24.455 L8.736,19.055 L8.716,13.537" fill="#C7C2C2"/>
          <path d="M13.662,10.234 L16.138,11.298 L20.217,12.309 L21.926,21.411 L20.725,19.514 L18.457,18.719 L14.985,18.136 L12.785,18.481 L10.984,21.294 L10.456,22.252 L8.716,24.455 L8.736,19.055 L8.716,13.537" fill-opacity="0" stroke="#C7C2C2" stroke-width="0.1" stroke-linecap="round" stroke-linejoin="round"/>
        </g>
        <g>
          <path d="M6.162,12.748 L7.706,12.567" fill="#C7C2C2"/>
          <path d="M6.162,12.748 L7.706,12.567" fill-opacity="0" stroke="#C7C2C2" stroke-width="0.1" stroke-linecap="round" stroke-linejoin="round"/>
        </g>
        <g>
          <path d="M7.706,12.567 L12.498,9.27" fill="#C7C2C2"/>
          <path d="M7.706,12.567 L12.498,9.27" fill-opacity="0" stroke="#C7C2C2" stroke-width="0.1" stroke-linecap="round" stroke-linejoin="round"/>
        </g>
        <g>
          <path d="M8.606,14.647 L8.716,13.537" fill="#C7C2C2"/>
          <path d="M8.606,14.647 L8.716,13.537" fill-opacity="0" stroke="#C7C2C2" stroke-width="0.1" stroke-linecap="round" stroke-linejoin="round"/>
        </g>
        <g>
          <path d="M8.716,13.537 L13.662,10.136" fill="#C7C2C2"/>
          <path d="M8.716,13.537 L13.662,10.136" fill-opacity="0" stroke="#C7C2C2" stroke-width="0.1" stroke-linecap="round" stroke-linejoin="round"/>
        </g>
        <g>
          <path d="M13.662,10.136 L14.669,10.608" fill="#C7C2C2"/>
          <path d="M13.662,10.136 L14.669,10.608" fill-opacity="0" stroke="#C7C2C2" stroke-width="0.1" stroke-linecap="round" stroke-linejoin="round"/>
        </g>
      </g>
    </g>
  </g>
</svg>
