<?xml version="1.0" encoding="UTF-8"?>
<!DOCTYPE svg PUBLIC "-//W3C//DTD SVG 1.1//EN" "http://www.w3.org/Graphics/SVG/1.1/DTD/svg11.dtd">
<svg version="1.1" xmlns="http://www.w3.org/2000/svg" xmlns:xlink="http://www.w3.org/1999/xlink" x="0" y="0" width="28.346" height="28.346" viewBox="0, 0, 28.346, 28.346">
  <g id="Diesel">
    <g>
      <g>
        <path d="M17.414,2.779 C18.194,2.779 18.826,3.502 18.826,4.393 L18.721,4.986 L18.826,4.986 L18.826,24.253 L18.954,24.249 L19.734,24.797 C20.098,25.135 20.295,25.11 20.314,26.02 L20.315,25.927 L20.315,27.429 L18.826,27.429 L18.826,26.952 L18.826,26.952 L18.826,27.429 L4.806,27.429 L4.806,27.429 L3.317,27.429 L3.317,25.927 L3.319,26.02 C3.338,25.11 3.535,25.135 3.898,24.798 L4.679,24.249 L4.806,24.253 L4.806,4.986 L4.911,4.986 L4.806,4.393 C4.807,3.502 5.439,2.779 6.218,2.779 L6.626,2.779 L6.626,2.779 L17.414,2.779 z M16.389,16.571 Q15.672,16.571 15.19,16.821 Q14.557,17.145 14.229,17.754 Q13.901,18.362 13.901,19.145 Q13.901,19.866 14.195,20.479 Q14.489,21.093 15.073,21.423 Q15.658,21.753 16.444,21.753 Q17.063,21.753 17.666,21.519 Q18.269,21.285 18.587,20.977 L18.587,18.981 L16.406,18.981 L16.406,19.825 L17.565,19.825 L17.565,20.461 Q17.336,20.639 17.017,20.763 Q16.697,20.888 16.379,20.888 Q15.737,20.888 15.34,20.442 Q14.944,19.996 14.943,19.104 Q14.944,18.277 15.335,17.856 Q15.726,17.436 16.389,17.436 Q16.827,17.436 17.119,17.649 Q17.411,17.863 17.517,18.232 L18.522,18.044 Q18.372,17.354 17.847,16.962 Q17.322,16.571 16.389,16.571 z M11.03,16.656 L9.406,16.656 L9.406,21.667 L10.418,21.667 L10.418,19.777 L11.078,19.777 Q11.765,19.777 12.127,19.705 Q12.394,19.647 12.652,19.468 Q12.91,19.288 13.077,18.974 Q13.245,18.66 13.245,18.198 Q13.245,17.6 12.954,17.222 Q12.664,16.845 12.233,16.732 Q11.953,16.657 11.03,16.656 z M10.907,17.504 Q11.454,17.504 11.635,17.538 Q11.881,17.583 12.042,17.76 Q12.202,17.938 12.202,18.212 Q12.202,18.434 12.088,18.601 Q11.973,18.769 11.772,18.847 Q11.57,18.926 10.972,18.926 L10.418,18.926 L10.418,17.504 L10.907,17.504 z M6.17,16.698 L5.158,16.698 L5.158,21.667 L8.685,21.667 L8.685,20.823 L6.17,20.823 L6.17,16.698 z M14.844,4.753 L9.024,4.753 L9.024,4.753 L8.049,4.753 C7.491,4.753 7.039,5.232 7.039,5.823 L7.039,7.14 L7.039,7.14 L7.039,13.428 L16.594,13.428 L16.594,5.823 C16.594,5.232 16.142,4.753 15.584,4.753 L14.844,4.753 L14.844,4.753 z" fill="#C7C2C2"/>
        <path d="M17.414,2.779 C18.194,2.779 18.826,3.502 18.826,4.393 L18.721,4.986 L18.826,4.986 L18.826,24.253 L18.954,24.249 L19.734,24.797 C20.098,25.135 20.295,25.11 20.314,26.02 L20.315,25.927 L20.315,27.429 L18.826,27.429 L18.826,26.952 L18.826,26.952 L18.826,27.429 L4.806,27.429 L4.806,27.429 L3.317,27.429 L3.317,25.927 L3.319,26.02 C3.338,25.11 3.535,25.135 3.898,24.798 L4.679,24.249 L4.806,24.253 L4.806,4.986 L4.911,4.986 L4.806,4.393 C4.807,3.502 5.439,2.779 6.218,2.779 L6.626,2.779 L6.626,2.779 L17.414,2.779 z M16.389,16.571 Q15.672,16.571 15.19,16.821 Q14.557,17.145 14.229,17.754 Q13.901,18.362 13.901,19.145 Q13.901,19.866 14.195,20.479 Q14.489,21.093 15.073,21.423 Q15.658,21.753 16.444,21.753 Q17.063,21.753 17.666,21.519 Q18.269,21.285 18.587,20.977 L18.587,18.981 L16.406,18.981 L16.406,19.825 L17.565,19.825 L17.565,20.461 Q17.336,20.639 17.017,20.763 Q16.697,20.888 16.379,20.888 Q15.737,20.888 15.34,20.442 Q14.944,19.996 14.943,19.104 Q14.944,18.277 15.335,17.856 Q15.726,17.436 16.389,17.436 Q16.827,17.436 17.119,17.649 Q17.411,17.863 17.517,18.232 L18.522,18.044 Q18.372,17.354 17.847,16.962 Q17.322,16.571 16.389,16.571 z M11.03,16.656 L9.406,16.656 L9.406,21.667 L10.418,21.667 L10.418,19.777 L11.078,19.777 Q11.765,19.777 12.127,19.705 Q12.394,19.647 12.652,19.468 Q12.91,19.288 13.077,18.974 Q13.245,18.66 13.245,18.198 Q13.245,17.6 12.954,17.222 Q12.664,16.845 12.233,16.732 Q11.953,16.657 11.03,16.656 z M10.907,17.504 Q11.454,17.504 11.635,17.538 Q11.881,17.583 12.042,17.76 Q12.202,17.938 12.202,18.212 Q12.202,18.434 12.088,18.601 Q11.973,18.769 11.772,18.847 Q11.57,18.926 10.972,18.926 L10.418,18.926 L10.418,17.504 L10.907,17.504 z M6.17,16.698 L5.158,16.698 L5.158,21.667 L8.685,21.667 L8.685,20.823 L6.17,20.823 L6.17,16.698 z M14.844,4.753 L9.024,4.753 L9.024,4.753 L8.049,4.753 C7.491,4.753 7.039,5.232 7.039,5.823 L7.039,7.14 L7.039,7.14 L7.039,13.428 L16.594,13.428 L16.594,5.823 C16.594,5.232 16.142,4.753 15.584,4.753 L14.844,4.753 L14.844,4.753 z" fill-opacity="0" stroke="#C7C2C2" stroke-width="0.2" stroke-linecap="round"/>
      </g>
      <path d="M23.597,10.891 C22.254,10.891 21.165,9.802 21.165,8.459 C21.165,7.116 22.254,6.027 23.597,6.027 C24.94,6.027 26.029,7.116 26.029,8.459 C26.029,9.802 24.94,10.891 23.597,10.891 z" fill-opacity="0" stroke="#C7C2C2" stroke-width="1.2" stroke-linecap="round"/>
      <path d="M20.952,1.917 L25.39,6.814" fill-opacity="0" stroke="#C7C2C2" stroke-width="1.2" stroke-linecap="round"/>
      <path d="M23.678,24.854 C22.393,24.854 21.352,23.773 21.352,22.439 C21.36,22.251 21.355,22.347 21.365,22.151" fill-opacity="0" stroke="#C7C2C2" stroke-width="1.2" stroke-linecap="round"/>
      <path d="M26,22.392 L26.004,22.439 C26.004,23.773 24.963,24.854 23.678,24.854" fill-opacity="0" stroke="#C7C2C2" stroke-width="1.2" stroke-linecap="round"/>
      <path d="M26.004,8.459 L26.004,22.719" fill-opacity="0" stroke="#C7C2C2" stroke-width="1.2" stroke-linecap="round"/>
      <path d="M18.723,15.31 C24.264,14.211 21.587,19.898 21.352,22.32" fill-opacity="0" stroke="#C7C2C2" stroke-width="1.2" stroke-linecap="round" stroke-linejoin="round"/>
      <g>
        <path d="M11.805,13.428 L9.515,8.853" fill="#FF8080"/>
        <path d="M11.805,13.428 L9.515,8.853" fill-opacity="0" stroke="#C7C2C2" stroke-width="1" stroke-linecap="round"/>
      </g>
    </g>
  </g>
</svg>
