<?xml version="1.0" encoding="UTF-8"?>
<!DOCTYPE svg PUBLIC "-//W3C//DTD SVG 1.1//EN" "http://www.w3.org/Graphics/SVG/1.1/DTD/svg11.dtd">
<svg version="1.1" xmlns="http://www.w3.org/2000/svg" xmlns:xlink="http://www.w3.org/1999/xlink" x="0" y="0" width="28.346" height="28.346" viewBox="0, 0, 28.346, 28.346">
  <g id="Diesel">
    <g>
      <g>
        <g>
          <path d="M17.414,2.779 C18.194,2.779 18.826,3.502 18.826,4.393 L18.721,4.986 L18.826,4.986 L18.826,24.253 L18.954,24.249 L19.734,24.797 C20.098,25.135 20.295,25.11 20.314,26.02 L20.315,25.927 L20.315,27.429 L18.826,27.429 L18.826,26.952 L18.826,26.952 L18.826,27.429 L4.807,27.429 L4.807,27.429 L3.317,27.429 L3.317,25.927 L3.319,26.02 C3.338,25.11 3.535,25.135 3.898,24.798 L4.679,24.249 L4.806,24.253 L4.806,4.986 L4.911,4.986 L4.807,4.393 C4.807,3.502 5.439,2.779 6.218,2.779 L6.626,2.779 L6.626,2.779 L17.414,2.779 z M11.825,14.687 L11.825,14.687 L9.057,20.357 L9.13,20.347 C8.8,21.131 8.899,20.73 8.817,21.547 C8.817,23.194 10.153,24.529 11.8,24.529 C13.447,24.529 14.782,23.194 14.782,21.547 C14.701,20.739 14.8,21.131 14.48,20.37 L14.564,20.385 L11.825,14.687 L11.825,14.687 L11.825,14.687 z M14.844,4.753 L9.024,4.753 L9.024,4.753 L8.049,4.753 C7.491,4.753 7.039,5.232 7.039,5.823 L7.039,7.14 L7.039,7.14 L7.039,13.428 L16.594,13.428 L16.594,5.823 C16.594,5.232 16.142,4.753 15.584,4.753 L14.844,4.753 L14.844,4.753 z" fill="#C7C2C2"/>
          <path d="M17.414,2.779 C18.194,2.779 18.826,3.502 18.826,4.393 L18.721,4.986 L18.826,4.986 L18.826,24.253 L18.954,24.249 L19.734,24.797 C20.098,25.135 20.295,25.11 20.314,26.02 L20.315,25.927 L20.315,27.429 L18.826,27.429 L18.826,26.952 L18.826,26.952 L18.826,27.429 L4.807,27.429 L4.807,27.429 L3.317,27.429 L3.317,25.927 L3.319,26.02 C3.338,25.11 3.535,25.135 3.898,24.798 L4.679,24.249 L4.806,24.253 L4.806,4.986 L4.911,4.986 L4.807,4.393 C4.807,3.502 5.439,2.779 6.218,2.779 L6.626,2.779 L6.626,2.779 L17.414,2.779 z M11.825,14.687 L11.825,14.687 L9.057,20.357 L9.13,20.347 C8.8,21.131 8.899,20.73 8.817,21.547 C8.817,23.194 10.153,24.529 11.8,24.529 C13.447,24.529 14.782,23.194 14.782,21.547 C14.701,20.739 14.8,21.131 14.48,20.37 L14.564,20.385 L11.825,14.687 L11.825,14.687 L11.825,14.687 z M14.844,4.753 L9.024,4.753 L9.024,4.753 L8.049,4.753 C7.491,4.753 7.039,5.232 7.039,5.823 L7.039,7.14 L7.039,7.14 L7.039,13.428 L16.594,13.428 L16.594,5.823 C16.594,5.232 16.142,4.753 15.584,4.753 L14.844,4.753 L14.844,4.753 z" fill-opacity="0" stroke="#C7C2C2" stroke-width="1" stroke-linecap="round"/>
        </g>
        <path d="M23.597,10.891 C22.254,10.891 21.165,9.802 21.165,8.459 C21.165,7.116 22.254,6.027 23.597,6.027 C24.94,6.027 26.029,7.116 26.029,8.459 C26.029,9.802 24.94,10.891 23.597,10.891 z" fill-opacity="0" stroke="#C7C2C2" stroke-width="1.2" stroke-linecap="round"/>
        <path d="M20.952,1.917 L25.39,6.814" fill-opacity="0" stroke="#C7C2C2" stroke-width="1.2" stroke-linecap="round"/>
        <path d="M23.678,24.854 C22.393,24.854 21.352,23.773 21.352,22.439 C21.36,22.251 21.355,22.347 21.365,22.151" fill-opacity="0" stroke="#C7C2C2" stroke-width="1.2" stroke-linecap="round"/>
        <path d="M26,22.392 L26.004,22.439 C26.004,23.773 24.963,24.854 23.678,24.854" fill-opacity="0" stroke="#C7C2C2" stroke-width="1.2" stroke-linecap="round"/>
        <path d="M26.004,8.459 L26.004,22.719" fill-opacity="0" stroke="#C7C2C2" stroke-width="1.2" stroke-linecap="round"/>
        <path d="M18.723,15.31 C24.264,14.211 21.587,19.898 21.352,22.32" fill-opacity="0" stroke="#C7C2C2" stroke-width="1.2" stroke-linecap="round" stroke-linejoin="round"/>
      </g>
      <g>
        <path d="M11.805,13.428 L9.515,8.853" fill="#FF8080"/>
        <path d="M11.805,13.428 L9.515,8.853" fill-opacity="0" stroke="#C7C2C2" stroke-width="1" stroke-linecap="round"/>
      </g>
    </g>
  </g>
</svg>
