<?xml version="1.0" encoding="UTF-8"?>
<!DOCTYPE svg PUBLIC "-//W3C//DTD SVG 1.1//EN" "http://www.w3.org/Graphics/SVG/1.1/DTD/svg11.dtd">
<svg version="1.1" xmlns="http://www.w3.org/2000/svg" xmlns:xlink="http://www.w3.org/1999/xlink" x="0" y="0" width="28.346" height="28.346" viewBox="0, 0, 28.346, 28.346">
  <g id="Layer_7">
    <g>
      <path d="M16.915,2.279 C17.694,2.279 18.326,3.002 18.326,3.893 L18.32,4.469 L18.328,4.445 L18.326,23.753 L18.454,23.749 L19.234,24.297 C19.598,24.635 19.795,24.61 19.814,25.52 L19.815,25.427 L19.815,26.929 L18.326,26.929 L18.326,26.452 L18.326,26.452 L18.326,26.929 L4.307,26.929 L4.307,26.929 L2.817,26.929 L2.817,25.427 L2.819,25.52 C2.838,24.61 3.035,24.635 3.398,24.298 L4.179,23.749 L4.307,23.753 L4.307,4.486 L4.313,4.492 L4.307,3.893 C4.307,3.002 4.939,2.279 5.718,2.279 L6.126,2.279 L6.126,2.279 L16.915,2.279 z M15.742,15.815 Q15.247,15.815 14.897,15.965 Q14.547,16.114 14.36,16.4 Q14.174,16.685 14.174,17.013 Q14.174,17.523 14.57,17.878 Q14.851,18.13 15.548,18.302 Q16.09,18.437 16.243,18.49 Q16.465,18.569 16.555,18.676 Q16.644,18.783 16.644,18.935 Q16.644,19.173 16.432,19.35 Q16.219,19.527 15.8,19.527 Q15.405,19.527 15.172,19.328 Q14.939,19.129 14.863,18.704 L14.019,18.786 Q14.104,19.507 14.541,19.883 Q14.977,20.259 15.792,20.259 Q16.351,20.259 16.726,20.103 Q17.101,19.946 17.306,19.624 Q17.511,19.301 17.511,18.932 Q17.511,18.525 17.34,18.248 Q17.169,17.971 16.865,17.812 Q16.562,17.652 15.929,17.503 Q15.297,17.353 15.132,17.215 Q15.004,17.107 15.003,16.955 Q15.004,16.788 15.141,16.688 Q15.355,16.533 15.733,16.533 Q16.099,16.533 16.282,16.678 Q16.465,16.823 16.521,17.154 L17.388,17.116 Q17.368,16.524 16.959,16.17 Q16.55,15.815 15.742,15.815 z M7.222,15.815 Q6.607,15.815 6.194,16.029 Q5.652,16.307 5.371,16.829 Q5.089,17.35 5.089,18.021 Q5.089,18.639 5.341,19.165 Q5.593,19.691 6.094,19.974 Q6.595,20.257 7.269,20.257 Q7.799,20.257 8.317,20.056 Q8.834,19.855 9.106,19.591 L9.106,17.881 L7.237,17.881 L7.237,18.604 L8.23,18.604 L8.23,19.149 Q8.034,19.301 7.76,19.408 Q7.486,19.515 7.213,19.515 Q6.663,19.515 6.323,19.133 Q5.983,18.751 5.983,17.986 Q5.983,17.277 6.318,16.917 Q6.654,16.556 7.222,16.556 Q7.597,16.556 7.848,16.739 Q8.098,16.923 8.189,17.239 L9.05,17.078 Q8.922,16.486 8.472,16.15 Q8.022,15.815 7.222,15.815 z M12.059,15.888 L11.142,15.888 L9.469,20.183 L10.389,20.183 L10.744,19.208 L12.461,19.208 L12.836,20.183 L13.779,20.183 L12.059,15.888 z M11.59,16.89 L12.182,18.484 L11.01,18.484 L11.59,16.89 z M14.344,4.253 L8.524,4.253 L8.524,4.253 L7.549,4.253 C6.991,4.253 6.539,4.732 6.539,5.323 L6.539,6.64 L6.539,6.64 L6.539,12.928 L16.094,12.928 L16.094,5.323 C16.094,4.732 15.642,4.253 15.084,4.253 L14.344,4.253 L14.344,4.253 z" fill="#C7C2C2"/>
      <path d="M23.597,10.891 C22.254,10.891 21.165,9.802 21.165,8.459 C21.165,7.116 22.254,6.027 23.597,6.027 C24.94,6.027 26.029,7.116 26.029,8.459 C26.029,9.802 24.94,10.891 23.597,10.891 z" fill-opacity="0" stroke="#C7C2C2" stroke-width="1.2" stroke-linecap="round"/>
      <path d="M20.952,1.917 L25.39,6.814" fill-opacity="0" stroke="#C7C2C2" stroke-width="1.2" stroke-linecap="round"/>
      <path d="M23.678,24.854 C22.393,24.854 21.352,23.773 21.352,22.439 C21.36,22.251 21.355,22.347 21.365,22.151" fill-opacity="0" stroke="#C7C2C2" stroke-width="1.2" stroke-linecap="round"/>
      <path d="M26,22.392 L26.004,22.439 C26.004,23.773 24.963,24.854 23.678,24.854" fill-opacity="0" stroke="#C7C2C2" stroke-width="1.2" stroke-linecap="round"/>
      <path d="M26.004,8.459 L26.004,22.719" fill-opacity="0" stroke="#C7C2C2" stroke-width="1.2" stroke-linecap="round"/>
      <path d="M18.723,15.31 C24.264,14.211 21.587,19.898 21.352,22.32" fill-opacity="0" stroke="#C7C2C2" stroke-width="1.2" stroke-linecap="round" stroke-linejoin="round"/>
      <g>
        <path d="M11.805,13.428 L9.515,8.853" fill="#FF8080" fill-opacity="0.965"/>
        <path d="M11.805,13.428 L9.515,8.853" fill-opacity="0" stroke="#C7C2C2" stroke-width="1" stroke-linecap="round"/>
      </g>
    </g>
  </g>
</svg>
