<?xml version="1.0" encoding="UTF-8"?>
<!DOCTYPE svg PUBLIC "-//W3C//DTD SVG 1.1//EN" "http://www.w3.org/Graphics/SVG/1.1/DTD/svg11.dtd">
<svg version="1.1" xmlns="http://www.w3.org/2000/svg" xmlns:xlink="http://www.w3.org/1999/xlink" x="0" y="0" width="28.346" height="28.346" viewBox="0, 0, 28.346, 28.346">
  <g id="Hybrid_">
    <g>
      <path d="M16.914,2.279 C17.694,2.279 18.326,3.002 18.326,3.893 L18.221,4.486 L18.326,4.486 L18.326,23.753 L18.454,23.749 L19.234,24.297 C19.598,24.635 19.795,24.61 19.814,25.52 L19.815,25.427 L19.815,26.929 L18.326,26.929 L18.326,26.452 L18.326,26.452 L18.326,26.929 L4.306,26.929 L4.306,26.929 L2.817,26.929 L2.817,25.427 L2.818,25.52 C2.838,24.61 3.035,24.635 3.398,24.298 L4.179,23.749 L4.306,23.753 L4.306,4.486 L4.411,4.486 L4.306,3.893 C4.307,3.002 4.939,2.279 5.718,2.279 L6.126,2.279 L6.126,2.279 L16.914,2.279 z M7.405,26.238 L7.386,26.238 L7.37,26.275 L7.405,26.238 z M13.365,18.326 L11.374,22.024 L12.961,22 L11.46,25.868 L15.829,20.669 L13.974,20.682 L15.56,18.326 L13.365,18.326 z M9.108,13.904 L9.108,13.905 L6.987,18.25 L7.043,18.242 C6.79,18.843 6.866,18.535 6.803,19.161 C6.803,20.423 7.827,21.447 9.089,21.447 C10.351,21.447 11.375,20.423 11.375,19.161 C11.312,18.542 11.388,18.843 11.143,18.26 L11.207,18.271 L9.108,13.905 L9.108,13.904 L9.108,13.904 z M14.344,4.253 L8.524,4.253 L8.524,4.253 L7.548,4.253 C6.991,4.253 6.539,4.732 6.539,5.323 L6.539,6.64 L6.538,6.64 L6.538,12.927 L16.094,12.927 L16.094,5.323 C16.094,4.732 15.642,4.253 15.084,4.253 L14.344,4.253 L14.344,4.253 z" fill="#C7C2C2"/>
      <path d="M23.597,10.891 C22.254,10.891 21.165,9.802 21.165,8.459 C21.165,7.116 22.254,6.027 23.597,6.027 C24.94,6.027 26.029,7.116 26.029,8.459 C26.029,9.802 24.94,10.891 23.597,10.891 z" fill-opacity="0" stroke="#C7C2C2" stroke-width="1.2" stroke-linecap="round"/>
      <path d="M20.952,1.917 L25.39,6.814" fill-opacity="0" stroke="#C7C2C2" stroke-width="1.2" stroke-linecap="round"/>
      <path d="M23.678,24.854 C22.393,24.854 21.352,23.773 21.352,22.439 C21.36,22.251 21.355,22.347 21.365,22.151" fill-opacity="0" stroke="#C7C2C2" stroke-width="1.2" stroke-linecap="round"/>
      <path d="M26,22.392 L26.004,22.439 C26.004,23.773 24.963,24.854 23.678,24.854" fill-opacity="0" stroke="#C7C2C2" stroke-width="1.2" stroke-linecap="round"/>
      <path d="M26.004,8.459 L26.004,22.719" fill-opacity="0" stroke="#C7C2C2" stroke-width="1.2" stroke-linecap="round"/>
      <path d="M18.723,15.31 C24.264,14.211 21.587,19.898 21.352,22.32" fill-opacity="0" stroke="#C7C2C2" stroke-width="1.2" stroke-linecap="round" stroke-linejoin="round"/>
      <g>
        <path d="M11.805,13.428 L9.515,8.853" fill="#FF8080"/>
        <path d="M11.805,13.428 L9.515,8.853" fill-opacity="0" stroke="#C7C2C2" stroke-width="1" stroke-linecap="round"/>
      </g>
      <path d="M8.393,20.481 C8.127,20.624 7.76,20.457 7.571,20.108 C7.383,19.758 7.445,19.359 7.711,19.216 C7.976,19.073 8.344,19.24 8.532,19.589 C8.72,19.939 8.658,20.338 8.393,20.481 z" fill="#C7C2C2"/>
    </g>
  </g>
</svg>
