<?xml version="1.0" encoding="UTF-8"?>
<!DOCTYPE svg PUBLIC "-//W3C//DTD SVG 1.1//EN" "http://www.w3.org/Graphics/SVG/1.1/DTD/svg11.dtd">
<svg version="1.1" xmlns="http://www.w3.org/2000/svg" xmlns:xlink="http://www.w3.org/1999/xlink" x="0" y="0" width="28.346" height="28.346" viewBox="0, 0, 28.346, 28.346">
  <g id="Wasserstoff">
    <g>
      <path d="M16.914,2.279 C17.694,2.279 18.326,3.002 18.326,3.893 L18.221,4.486 L18.326,4.486 L18.326,23.753 L18.454,23.749 L19.234,24.297 C19.598,24.635 19.795,24.61 19.814,25.52 L19.815,25.427 L19.815,26.929 L18.326,26.929 L18.326,26.452 L18.326,26.452 L18.326,26.929 L4.306,26.929 L4.306,26.929 L2.817,26.929 L2.817,25.427 L2.819,25.52 C2.838,24.61 3.035,24.635 3.398,24.298 L4.179,23.749 L4.306,23.753 L4.306,4.486 L4.411,4.486 L4.306,3.893 C4.307,3.002 4.939,2.279 5.718,2.279 L6.126,2.279 L6.126,2.279 L16.914,2.279 z M14.456,18.272 Q13.683,18.272 13.167,18.666 Q12.652,19.061 12.554,19.967 L13.648,20.076 Q13.679,19.596 13.882,19.389 Q14.085,19.182 14.429,19.182 Q14.777,19.182 14.974,19.379 Q15.171,19.576 15.171,19.944 Q15.171,20.276 14.945,20.615 Q14.777,20.862 14.035,21.553 Q13.113,22.408 12.8,22.926 Q12.488,23.444 12.425,24.022 L16.273,24.022 L16.273,23.002 L14.093,23.002 Q14.179,22.854 14.318,22.697 Q14.457,22.541 14.976,22.065 Q15.496,21.588 15.695,21.334 Q15.996,20.951 16.134,20.602 Q16.273,20.252 16.273,19.865 Q16.273,19.186 15.788,18.729 Q15.304,18.272 14.457,18.272 z M7.699,15.577 L6.543,15.577 L6.543,21.304 L7.699,21.304 L7.699,18.8 L9.965,18.8 L9.965,21.304 L11.121,21.304 L11.121,15.577 L9.965,15.577 L9.965,17.831 L7.699,17.831 L7.699,15.577 z M14.344,4.253 L8.524,4.253 L8.524,4.253 L7.549,4.253 C6.991,4.253 6.539,4.732 6.539,5.323 L6.539,6.64 L6.539,6.64 L6.539,12.927 L16.094,12.927 L16.094,5.323 C16.094,4.732 15.642,4.253 15.084,4.253 L14.344,4.253 L14.344,4.253 z" fill="#C7C2C2"/>
      <path d="M23.597,10.891 C22.254,10.891 21.165,9.802 21.165,8.459 C21.165,7.116 22.254,6.027 23.597,6.027 C24.94,6.027 26.029,7.116 26.029,8.459 C26.029,9.802 24.94,10.891 23.597,10.891 z" fill-opacity="0" stroke="#C7C2C2" stroke-width="1.2" stroke-linecap="round"/>
      <path d="M20.952,1.917 L25.39,6.814" fill-opacity="0" stroke="#C7C2C2" stroke-width="1.2" stroke-linecap="round"/>
      <path d="M23.678,24.854 C22.393,24.854 21.352,23.773 21.352,22.439 C21.36,22.251 21.355,22.347 21.365,22.151" fill-opacity="0" stroke="#C7C2C2" stroke-width="1.2" stroke-linecap="round"/>
      <path d="M26,22.392 L26.004,22.439 C26.004,23.773 24.963,24.854 23.678,24.854" fill-opacity="0" stroke="#C7C2C2" stroke-width="1.2" stroke-linecap="round"/>
      <path d="M26.004,8.459 L26.004,22.719" fill-opacity="0" stroke="#C7C2C2" stroke-width="1.2" stroke-linecap="round"/>
      <path d="M18.723,15.31 C24.264,14.211 21.587,19.898 21.352,22.32" fill-opacity="0" stroke="#C7C2C2" stroke-width="1.2" stroke-linecap="round" stroke-linejoin="round"/>
      <g>
        <path d="M11.805,13.428 L9.515,8.853" fill="#FF8080"/>
        <path d="M11.805,13.428 L9.515,8.853" fill-opacity="0" stroke="#C7C2C2" stroke-width="1" stroke-linecap="round"/>
      </g>
    </g>
  </g>
</svg>
