<?xml version="1.0" encoding="UTF-8"?>
<!DOCTYPE svg PUBLIC "-//W3C//DTD SVG 1.1//EN" "http://www.w3.org/Graphics/SVG/1.1/DTD/svg11.dtd">
<svg version="1.1" xmlns="http://www.w3.org/2000/svg" xmlns:xlink="http://www.w3.org/1999/xlink" x="0" y="0" width="28.346" height="28.346" viewBox="0, 0, 28.346, 28.346">
  <g id="Layer_27">
    <path d="M13.327,6.487 L16.019,6.487 C16.906,6.487 17.625,7.464 17.625,8.67 L17.625,8.67 L17.622,8.749" fill-opacity="0" stroke="#C7C2C2" stroke-width="1" stroke-linecap="round" stroke-linejoin="round"/>
    <path d="M11.726,8.783 L11.722,8.67 L11.722,8.67 C11.722,7.464 12.44,6.487 13.327,6.487" fill-opacity="0" stroke="#C7C2C2" stroke-width="1" stroke-linecap="round" stroke-linejoin="round"/>
    <path d="M7.363,8.151 L7.363,8.624" fill-opacity="0" stroke="#C7C2C2" stroke-width="1" stroke-linecap="round" stroke-linejoin="round"/>
    <path d="M21.983,8.151 L21.983,8.624" fill-opacity="0" stroke="#C7C2C2" stroke-width="1" stroke-linecap="round" stroke-linejoin="round"/>
    <g>
      <path d="M24.87,8.783 C25.5,8.783 26.012,9.289 26.012,9.913 L26.012,21.729 C26.012,22.353 25.5,22.86 24.87,22.86 L4.477,22.86 C3.846,22.86 3.335,22.353 3.335,21.729 L3.335,9.913 C3.335,9.289 3.846,8.783 4.477,8.783 L24.87,8.783 z M14.53,10.408 Q13.374,10.408 12.557,10.757 Q11.741,11.106 11.307,11.772 Q10.872,12.439 10.872,13.204 Q10.872,14.394 11.795,15.221 Q12.452,15.809 14.078,16.212 Q15.343,16.526 15.699,16.649 Q16.218,16.834 16.427,17.083 Q16.635,17.333 16.635,17.688 Q16.635,18.242 16.139,18.656 Q15.644,19.069 14.666,19.069 Q13.744,19.069 13.2,18.604 Q12.657,18.14 12.479,17.149 L10.51,17.34 Q10.708,19.022 11.727,19.9 Q12.745,20.778 14.646,20.778 Q15.952,20.778 16.826,20.413 Q17.702,20.047 18.18,19.295 Q18.659,18.543 18.659,17.682 Q18.659,16.732 18.259,16.086 Q17.859,15.44 17.151,15.067 Q16.444,14.694 14.967,14.346 Q13.491,13.997 13.108,13.676 Q12.807,13.423 12.807,13.067 Q12.807,12.678 13.128,12.445 Q13.627,12.083 14.509,12.083 Q15.364,12.083 15.791,12.421 Q16.218,12.76 16.348,13.532 L18.371,13.443 Q18.324,12.063 17.37,11.235 Q16.416,10.408 14.53,10.408 z" fill="#C7C2C2"/>
      <path d="M24.87,8.783 C25.5,8.783 26.012,9.289 26.012,9.913 L26.012,21.729 C26.012,22.353 25.5,22.86 24.87,22.86 L4.477,22.86 C3.846,22.86 3.335,22.353 3.335,21.729 L3.335,9.913 C3.335,9.289 3.846,8.783 4.477,8.783 L24.87,8.783 z M14.53,10.408 Q13.374,10.408 12.557,10.757 Q11.741,11.106 11.307,11.772 Q10.872,12.439 10.872,13.204 Q10.872,14.394 11.795,15.221 Q12.452,15.809 14.078,16.212 Q15.343,16.526 15.699,16.649 Q16.218,16.834 16.427,17.083 Q16.635,17.333 16.635,17.688 Q16.635,18.242 16.139,18.656 Q15.644,19.069 14.666,19.069 Q13.744,19.069 13.2,18.604 Q12.657,18.14 12.479,17.149 L10.51,17.34 Q10.708,19.022 11.727,19.9 Q12.745,20.778 14.646,20.778 Q15.952,20.778 16.826,20.413 Q17.702,20.047 18.18,19.295 Q18.659,18.543 18.659,17.682 Q18.659,16.732 18.259,16.086 Q17.859,15.44 17.151,15.067 Q16.444,14.694 14.967,14.346 Q13.491,13.997 13.108,13.676 Q12.807,13.423 12.807,13.067 Q12.807,12.678 13.128,12.445 Q13.627,12.083 14.509,12.083 Q15.364,12.083 15.791,12.421 Q16.218,12.76 16.348,13.532 L18.371,13.443 Q18.324,12.063 17.37,11.235 Q16.416,10.408 14.53,10.408 z" fill-opacity="0" stroke="#C7C2C2" stroke-width="0.1" stroke-linecap="round" stroke-linejoin="round"/>
    </g>
  </g>
</svg>
